<svg width="378" height="342" viewBox="0 0 378 342" fill="none" xmlns="http://www.w3.org/2000/svg">
<path fill-rule="evenodd" clip-rule="evenodd" d="M294 178.461L189 240L84 178.461V-8.39233e-05H294V178.461ZM177.412 31.6483L262.5 80.7841V31.6483H177.412ZM262.5 117.165L115.5 32.2758V83.1524L221.5 145.199L190.213 163.513L115.5 119.78V160.284L189 203.36L262.5 160.284V117.165Z" fill="#1135FF"/>
<path d="M28.0504 341.896C22.7952 341.896 18.086 341.031 13.9228 339.3C9.75963 337.57 6.41542 335.009 3.8902 331.617C1.43323 328.225 0.136498 324.141 0 319.365H18.632C18.905 322.064 19.8264 324.141 21.3961 325.594C22.9659 326.979 25.0133 327.671 27.5386 327.671C30.132 327.671 32.1795 327.083 33.681 325.906C35.1825 324.66 35.9332 322.964 35.9332 320.818C35.9332 319.018 35.319 317.53 34.0905 316.353C32.9302 315.177 31.4629 314.208 29.6884 313.446C27.9822 312.685 25.5252 311.819 22.3175 310.85C17.6765 309.397 13.8887 307.943 10.954 306.489C8.01928 305.036 5.49406 302.89 3.37833 300.052C1.26261 297.214 0.204748 293.51 0.204748 288.942C0.204748 282.158 2.62759 276.863 7.47329 273.056C12.319 269.179 18.632 267.241 26.4124 267.241C34.3293 267.241 40.7106 269.179 45.5563 273.056C50.402 276.863 52.9955 282.193 53.3367 289.046H34.3976C34.2611 286.692 33.408 284.858 31.8382 283.543C30.2685 282.158 28.2552 281.466 25.7982 281.466C23.6825 281.466 21.9762 282.054 20.6795 283.231C19.3828 284.339 18.7344 285.965 18.7344 288.111C18.7344 290.465 19.8264 292.299 22.0104 293.614C24.1943 294.929 27.6068 296.349 32.2477 297.871C36.8887 299.463 40.6424 300.986 43.5089 302.44C46.4436 303.894 48.9688 306.005 51.0845 308.774C53.2002 311.543 54.2581 315.107 54.2581 319.468C54.2581 323.622 53.2002 327.394 51.0845 330.786C49.037 334.178 46.0341 336.878 42.0756 338.885C38.1172 340.892 33.4421 341.896 28.0504 341.896Z" fill="#0B004C"/>
<path d="M118.88 311.266C118.88 312.927 118.778 314.658 118.573 316.457H78.9542C79.2272 320.057 80.3533 322.826 82.3325 324.764C84.38 326.633 86.8711 327.567 89.8058 327.567C94.1738 327.567 97.2108 325.698 98.9171 321.96H117.549C116.594 325.768 114.853 329.194 112.328 332.24C109.871 335.285 106.766 337.674 103.012 339.404C99.2583 341.135 95.061 342 90.42 342C84.8236 342 79.8414 340.789 75.4735 338.366C71.1055 335.943 67.6931 332.482 65.2361 327.983C62.7791 323.483 61.5506 318.222 61.5506 312.2C61.5506 306.178 62.745 300.917 65.1337 296.418C67.5907 291.918 71.0032 288.457 75.3711 286.035C79.739 283.612 84.7554 282.4 90.42 282.4C95.9482 282.4 100.862 283.577 105.162 285.931C109.462 288.284 112.806 291.641 115.195 296.002C117.651 300.363 118.88 305.451 118.88 311.266ZM100.965 306.593C100.965 303.548 99.9408 301.125 97.8933 299.325C95.8459 297.525 93.2865 296.625 90.2153 296.625C87.2806 296.625 84.7895 297.491 82.742 299.221C80.7628 300.952 79.5343 303.409 79.0566 306.593H100.965Z" fill="#0B004C"/>
<path d="M124.634 312.2C124.634 306.178 125.829 300.917 128.218 296.418C130.675 291.918 134.053 288.457 138.353 286.035C142.721 283.612 147.703 282.4 153.299 282.4C160.465 282.4 166.437 284.304 171.215 288.111C176.06 291.918 179.234 297.283 180.735 304.205H162.103C160.534 299.775 157.496 297.56 152.992 297.56C149.784 297.56 147.225 298.84 145.314 301.402C143.403 303.894 142.448 307.493 142.448 312.2C142.448 316.907 143.403 320.541 145.314 323.103C147.225 325.594 149.784 326.84 152.992 326.84C157.496 326.84 160.534 324.625 162.103 320.195H180.735C179.234 326.979 176.06 332.309 171.215 336.185C166.369 340.062 160.397 342 153.299 342C147.703 342 142.721 340.789 138.353 338.366C134.053 335.943 130.675 332.482 128.218 327.983C125.829 323.483 124.634 318.222 124.634 312.2Z" fill="#0B004C"/>
<path d="M246.507 283.231V341.169H229.001V333.278C227.227 335.839 224.804 337.916 221.733 339.508C218.73 341.031 215.386 341.792 211.7 341.792C207.332 341.792 203.476 340.823 200.132 338.885C196.788 336.878 194.194 334.005 192.352 330.267C190.509 326.529 189.587 322.133 189.587 317.08V283.231H206.991V314.692C206.991 318.569 207.981 321.58 209.96 323.726C211.939 325.871 214.601 326.944 217.945 326.944C221.357 326.944 224.053 325.871 226.033 323.726C228.012 321.58 229.001 318.569 229.001 314.692V283.231H246.507Z" fill="#0B004C"/>
<path d="M276.588 292.887C278.635 289.703 281.194 287.211 284.266 285.412C287.337 283.543 290.749 282.608 294.503 282.608V301.402H289.691C285.323 301.402 282.048 302.371 279.864 304.309C277.68 306.178 276.588 309.501 276.588 314.277V341.169H259.082V283.231H276.588V292.887Z" fill="#0B004C"/>
<path d="M349.655 268.279V282.504H320.376V297.871H342.284V311.681H320.376V341.169H302.87V268.279H349.655Z" fill="#0B004C"/>
<path d="M367.66 277.209C364.589 277.209 362.064 276.309 360.085 274.509C358.174 272.64 357.218 270.356 357.218 267.656C357.218 264.887 358.174 262.603 360.085 260.803C362.064 258.934 364.589 258 367.66 258C370.663 258 373.12 258.934 375.031 260.803C377.01 262.603 378 264.887 378 267.656C378 270.356 377.01 272.64 375.031 274.509C373.12 276.309 370.663 277.209 367.66 277.209ZM376.362 283.231V341.169H358.856V283.231H376.362Z" fill="#0B004C"/>
</svg>
