<svg width="1344" height="528" viewBox="0 0 1344 528" fill="none" xmlns="http://www.w3.org/2000/svg">
<rect width="1344" height="528" fill="black"/>
<path fill-rule="evenodd" clip-rule="evenodd" d="M450 322.462L345 384L240 322.462V144H450V322.462ZM333.412 175.648L418.5 224.784V175.648H333.412ZM418.5 261.165L271.5 176.276V227.153L377.5 289.199L346.213 307.513L271.5 263.78V304.284L345 347.361L418.5 304.284V261.165Z" fill="white"/>
<path d="M587.408 323.852C579.65 323.852 572.698 322.616 566.553 320.143C560.407 317.671 555.47 314.012 551.743 309.167C548.116 304.321 546.201 298.487 546 291.664H573.504C573.907 295.52 575.268 298.487 577.585 300.564C579.902 302.541 582.924 303.53 586.652 303.53C590.481 303.53 593.503 302.69 595.72 301.009C597.936 299.229 599.044 296.806 599.044 293.74C599.044 291.169 598.138 289.043 596.324 287.362C594.611 285.681 592.445 284.297 589.826 283.209C587.307 282.121 583.68 280.885 578.945 279.501C572.094 277.424 566.502 275.347 562.17 273.271C557.838 271.194 554.11 268.129 550.987 264.074C547.864 260.02 546.302 254.729 546.302 248.203C546.302 238.512 549.879 230.947 557.032 225.508C564.185 219.97 573.504 217.201 584.99 217.201C596.677 217.201 606.097 219.97 613.25 225.508C620.403 230.947 624.231 238.561 624.735 248.351H596.777C596.576 244.989 595.317 242.368 592.999 240.489C590.682 238.512 587.71 237.523 584.083 237.523C580.96 237.523 578.441 238.363 576.527 240.044C574.613 241.627 573.656 243.951 573.656 247.016C573.656 250.378 575.268 252.999 578.491 254.878C581.715 256.756 586.753 258.784 593.604 260.959C600.455 263.234 605.996 265.409 610.227 267.486C614.56 269.562 618.287 272.578 621.41 276.534C624.534 280.489 626.095 285.582 626.095 291.812C626.095 297.745 624.534 303.135 621.41 307.98C618.388 312.826 613.955 316.682 608.112 319.55C602.268 322.418 595.367 323.852 587.408 323.852Z" fill="white"/>
<path d="M721.489 280.094C721.489 282.467 721.338 284.939 721.036 287.51H662.551C662.954 292.653 664.617 296.608 667.538 299.377C670.561 302.047 674.238 303.382 678.57 303.382C685.018 303.382 689.502 300.712 692.02 295.372H719.525C718.114 300.811 715.545 305.706 711.818 310.057C708.191 314.408 703.607 317.82 698.065 320.292C692.524 322.764 686.328 324 679.477 324C671.216 324 663.861 322.269 657.413 318.808C650.965 315.347 645.928 310.403 642.301 303.975C638.674 297.548 636.86 290.032 636.86 281.429C636.86 272.826 638.624 265.31 642.15 258.883C645.777 252.455 650.814 247.51 657.262 244.049C663.71 240.588 671.115 238.858 679.477 238.858C687.638 238.858 694.892 240.539 701.239 243.901C707.586 247.263 712.523 252.059 716.049 258.289C719.676 264.519 721.489 271.787 721.489 280.094ZM695.043 273.419C695.043 269.068 693.532 265.607 690.509 263.036C687.487 260.465 683.709 259.179 679.175 259.179C674.843 259.179 671.165 260.415 668.143 262.888C665.221 265.36 663.408 268.87 662.703 273.419H695.043Z" fill="white"/>
<path d="M729.984 281.429C729.984 272.826 731.747 265.31 735.274 258.883C738.901 252.455 743.888 247.51 750.235 244.049C756.683 240.588 764.037 238.858 772.299 238.858C782.877 238.858 791.693 241.577 798.745 247.016C805.898 252.455 810.583 260.119 812.8 270.007H785.295C782.978 263.679 778.495 260.514 771.845 260.514C767.11 260.514 763.332 262.344 760.511 266.002C757.69 269.562 756.28 274.705 756.28 281.429C756.28 288.153 757.69 293.345 760.511 297.004C763.332 300.564 767.11 302.344 771.845 302.344C778.495 302.344 782.978 299.179 785.295 292.85H812.8C810.583 302.541 805.898 310.156 798.745 315.693C791.592 321.231 782.777 324 772.299 324C764.037 324 756.683 322.269 750.235 318.808C743.888 315.347 738.901 310.403 735.274 303.975C731.747 297.548 729.984 290.032 729.984 281.429Z" fill="white"/>
<path d="M909.892 240.044V322.813H884.05V311.54C881.43 315.199 877.854 318.166 873.32 320.44C868.887 322.616 863.95 323.703 858.51 323.703C852.062 323.703 846.37 322.319 841.433 319.55C836.496 316.682 832.668 312.578 829.948 307.239C827.227 301.899 825.867 295.619 825.867 288.4V240.044H851.558V284.989C851.558 290.527 853.019 294.828 855.941 297.894C858.862 300.959 862.792 302.492 867.728 302.492C872.766 302.492 876.745 300.959 879.667 297.894C882.589 294.828 884.05 290.527 884.05 284.989V240.044H909.892Z" fill="white"/>
<path d="M954.296 253.839C957.318 249.29 961.096 245.731 965.63 243.159C970.164 240.489 975.201 239.155 980.743 239.155V266.002H973.64C967.192 266.002 962.356 267.387 959.132 270.156C955.908 272.826 954.296 277.572 954.296 284.396V322.813H928.454V240.044H954.296V253.839Z" fill="white"/>
<path d="M1062.16 218.685V239.006H1018.94V260.959H1051.28V280.687H1018.94V322.813H993.094V218.685H1062.16Z" fill="white"/>
<path d="M1088.74 231.441C1084.2 231.441 1080.48 230.156 1077.55 227.585C1074.73 224.915 1073.32 221.651 1073.32 217.795C1073.32 213.839 1074.73 210.576 1077.55 208.005C1080.48 205.335 1084.2 204 1088.74 204C1093.17 204 1096.8 205.335 1099.62 208.005C1102.54 210.576 1104 213.839 1104 217.795C1104 221.651 1102.54 224.915 1099.62 227.585C1096.8 230.156 1093.17 231.441 1088.74 231.441ZM1101.58 240.044V322.813H1075.74V240.044H1101.58Z" fill="white"/>
</svg>
