<svg width="864" height="240" viewBox="0 0 864 240" fill="none" xmlns="http://www.w3.org/2000/svg">
<path fill-rule="evenodd" clip-rule="evenodd" d="M210 178.462L105 240L0 178.462V0H210V178.462ZM93.4118 31.6483L178.5 80.7841V31.6483H93.4118ZM178.5 117.165L31.5 32.2758V83.1525L137.5 145.199L106.213 163.513L31.5 119.78V160.284L105 203.361L178.5 160.284V117.165Z" fill="#1135FF"/>
<path d="M347.408 179.852C339.65 179.852 332.698 178.616 326.553 176.143C320.407 173.671 315.47 170.012 311.743 165.167C308.116 160.321 306.201 154.487 306 147.664H333.504C333.907 151.52 335.268 154.487 337.585 156.564C339.902 158.541 342.924 159.53 346.652 159.53C350.481 159.53 353.503 158.69 355.72 157.009C357.936 155.229 359.044 152.806 359.044 149.74C359.044 147.169 358.138 145.043 356.324 143.362C354.611 141.681 352.445 140.297 349.826 139.209C347.307 138.121 343.68 136.885 338.945 135.501C332.094 133.424 326.502 131.347 322.17 129.271C317.838 127.194 314.11 124.129 310.987 120.074C307.864 116.02 306.302 110.729 306.302 104.203C306.302 94.5117 309.879 86.9468 317.032 81.508C324.185 75.9703 333.504 73.2015 344.99 73.2015C356.677 73.2015 366.097 75.9703 373.25 81.508C380.403 86.9468 384.231 94.5612 384.735 104.351H356.777C356.576 100.989 355.317 98.3683 352.999 96.4895C350.682 94.5117 347.71 93.5229 344.083 93.5229C340.96 93.5229 338.441 94.3634 336.527 96.0445C334.613 97.6267 333.656 99.9505 333.656 103.016C333.656 106.378 335.268 108.999 338.491 110.878C341.715 112.756 346.753 114.784 353.604 116.959C360.455 119.234 365.996 121.409 370.227 123.486C374.56 125.562 378.287 128.578 381.41 132.534C384.534 136.489 386.095 141.582 386.095 147.812C386.095 153.745 384.534 159.135 381.41 163.98C378.388 168.826 373.955 172.682 368.112 175.55C362.268 178.418 355.367 179.852 347.408 179.852Z" fill="#0B004C"/>
<path d="M481.489 136.094C481.489 138.467 481.338 140.939 481.036 143.51H422.551C422.954 148.653 424.617 152.608 427.538 155.377C430.561 158.047 434.238 159.382 438.57 159.382C445.018 159.382 449.502 156.712 452.02 151.372H479.525C478.114 156.811 475.545 161.706 471.818 166.057C468.191 170.408 463.607 173.82 458.065 176.292C452.524 178.764 446.328 180 439.477 180C431.216 180 423.861 178.269 417.413 174.808C410.965 171.347 405.928 166.403 402.301 159.975C398.674 153.548 396.86 146.032 396.86 137.429C396.86 128.826 398.624 121.31 402.15 114.883C405.777 108.455 410.814 103.51 417.262 100.049C423.71 96.5884 431.115 94.8578 439.477 94.8578C447.638 94.8578 454.892 96.5389 461.239 99.9011C467.586 103.263 472.523 108.059 476.049 114.289C479.676 120.519 481.489 127.787 481.489 136.094ZM455.043 129.419C455.043 125.068 453.532 121.607 450.509 119.036C447.487 116.465 443.709 115.179 439.175 115.179C434.843 115.179 431.165 116.415 428.143 118.888C425.221 121.36 423.408 124.87 422.703 129.419H455.043Z" fill="#0B004C"/>
<path d="M489.984 137.429C489.984 128.826 491.747 121.31 495.274 114.883C498.901 108.455 503.888 103.51 510.235 100.049C516.683 96.5884 524.037 94.8578 532.299 94.8578C542.877 94.8578 551.693 97.5772 558.745 103.016C565.898 108.455 570.583 116.119 572.8 126.007H545.295C542.978 119.679 538.495 116.514 531.845 116.514C527.11 116.514 523.332 118.344 520.511 122.002C517.69 125.562 516.28 130.705 516.28 137.429C516.28 144.153 517.69 149.345 520.511 153.004C523.332 156.564 527.11 158.344 531.845 158.344C538.495 158.344 542.978 155.179 545.295 148.85H572.8C570.583 158.541 565.898 166.156 558.745 171.693C551.592 177.231 542.777 180 532.299 180C524.037 180 516.683 178.269 510.235 174.808C503.888 171.347 498.901 166.403 495.274 159.975C491.747 153.548 489.984 146.032 489.984 137.429Z" fill="#0B004C"/>
<path d="M669.892 96.0445V178.813H644.05V167.54C641.43 171.199 637.854 174.166 633.32 176.44C628.887 178.616 623.95 179.703 618.51 179.703C612.062 179.703 606.37 178.319 601.433 175.55C596.496 172.682 592.668 168.578 589.948 163.239C587.227 157.899 585.867 151.619 585.867 144.4V96.0445H611.558V140.989C611.558 146.527 613.019 150.828 615.941 153.894C618.862 156.959 622.792 158.492 627.728 158.492C632.766 158.492 636.745 156.959 639.667 153.894C642.589 150.828 644.05 146.527 644.05 140.989V96.0445H669.892Z" fill="#0B004C"/>
<path d="M714.296 109.839C717.318 105.29 721.096 101.731 725.63 99.1595C730.164 96.4895 735.201 95.1545 740.743 95.1545V122.002H733.64C727.192 122.002 722.356 123.387 719.132 126.156C715.908 128.826 714.296 133.572 714.296 140.396V178.813H688.454V96.0445H714.296V109.839Z" fill="#0B004C"/>
<path d="M822.158 74.6848V95.0062H778.937V116.959H811.277V136.687H778.937V178.813H753.094V74.6848H822.158Z" fill="#0B004C"/>
<path d="M848.737 87.4413C844.203 87.4413 840.475 86.1557 837.553 83.5847C834.732 80.9147 833.322 77.6514 833.322 73.7948C833.322 69.8393 834.732 66.576 837.553 64.0049C840.475 61.335 844.203 60 848.737 60C853.169 60 856.796 61.335 859.617 64.0049C862.539 66.576 864 69.8393 864 73.7948C864 77.6514 862.539 80.9147 859.617 83.5847C856.796 86.1557 853.169 87.4413 848.737 87.4413ZM861.582 96.0445V178.813H835.74V96.0445H861.582Z" fill="#0B004C"/>
</svg>
