<svg width="720" height="720" viewBox="0 0 720 720" fill="none" xmlns="http://www.w3.org/2000/svg">
<rect width="720" height="720" fill="black"/>
<path fill-rule="evenodd" clip-rule="evenodd" d="M465 367.461L360 429L255 367.461V189H465V367.461ZM348.412 220.648L433.5 269.784V220.648H348.412ZM433.5 306.165L286.5 221.276V272.152L392.5 334.199L361.213 352.513L286.5 308.78V349.284L360 392.361L433.5 349.284V306.165Z" fill="white"/>
<path d="M199.05 530.896C193.795 530.896 189.086 530.031 184.923 528.3C180.76 526.57 177.415 524.009 174.89 520.617C172.433 517.225 171.136 513.141 171 508.365H189.632C189.905 511.064 190.826 513.141 192.396 514.594C193.966 515.979 196.013 516.671 198.539 516.671C201.132 516.671 203.179 516.083 204.681 514.906C206.182 513.66 206.933 511.964 206.933 509.818C206.933 508.018 206.319 506.53 205.09 505.353C203.93 504.177 202.463 503.208 200.688 502.446C198.982 501.685 196.525 500.819 193.317 499.85C188.677 498.397 184.889 496.943 181.954 495.489C179.019 494.036 176.494 491.89 174.378 489.052C172.263 486.214 171.205 482.51 171.205 477.942C171.205 471.158 173.628 465.863 178.473 462.056C183.319 458.179 189.632 456.241 197.412 456.241C205.329 456.241 211.711 458.179 216.556 462.056C221.402 465.863 223.996 471.193 224.337 478.046H205.398C205.261 475.692 204.408 473.858 202.838 472.543C201.269 471.158 199.255 470.466 196.798 470.466C194.682 470.466 192.976 471.054 191.68 472.231C190.383 473.339 189.734 474.965 189.734 477.111C189.734 479.465 190.826 481.299 193.01 482.614C195.194 483.929 198.607 485.348 203.248 486.871C207.889 488.463 211.642 489.986 214.509 491.44C217.444 492.894 219.969 495.005 222.085 497.774C224.2 500.543 225.258 504.107 225.258 508.468C225.258 512.622 224.2 516.394 222.085 519.786C220.037 523.178 217.034 525.878 213.076 527.885C209.117 529.892 204.442 530.896 199.05 530.896Z" fill="white"/>
<path d="M289.88 500.266C289.88 501.927 289.778 503.657 289.573 505.457H249.954C250.227 509.057 251.353 511.826 253.333 513.764C255.38 515.633 257.871 516.567 260.806 516.567C265.174 516.567 268.211 514.698 269.917 510.96H288.549C287.594 514.768 285.853 518.194 283.328 521.24C280.871 524.285 277.766 526.674 274.012 528.404C270.258 530.135 266.061 531 261.42 531C255.824 531 250.841 529.789 246.473 527.366C242.106 524.943 238.693 521.482 236.236 516.983C233.779 512.483 232.551 507.222 232.551 501.2C232.551 495.178 233.745 489.917 236.134 485.418C238.591 480.918 242.003 477.457 246.371 475.035C250.739 472.612 255.755 471.4 261.42 471.4C266.948 471.4 271.862 472.577 276.162 474.931C280.462 477.284 283.806 480.641 286.195 485.002C288.651 489.363 289.88 494.451 289.88 500.266ZM271.965 495.593C271.965 492.547 270.941 490.125 268.893 488.325C266.846 486.525 264.287 485.625 261.215 485.625C258.281 485.625 255.789 486.491 253.742 488.221C251.763 489.952 250.534 492.409 250.057 495.593H271.965Z" fill="white"/>
<path d="M295.634 501.2C295.634 495.178 296.829 489.917 299.218 485.418C301.675 480.918 305.053 477.457 309.353 475.035C313.721 472.612 318.703 471.4 324.299 471.4C331.465 471.4 337.437 473.304 342.215 477.111C347.06 480.918 350.234 486.283 351.735 493.205H333.103C331.534 488.775 328.496 486.56 323.992 486.56C320.784 486.56 318.225 487.84 316.314 490.402C314.403 492.894 313.448 496.493 313.448 501.2C313.448 505.907 314.403 509.541 316.314 512.102C318.225 514.594 320.784 515.84 323.992 515.84C328.496 515.84 331.534 513.625 333.103 509.195H351.735C350.234 515.979 347.06 521.309 342.215 525.185C337.369 529.062 331.397 531 324.299 531C318.703 531 313.721 529.789 309.353 527.366C305.053 524.943 301.675 521.482 299.218 516.983C296.829 512.483 295.634 507.222 295.634 501.2Z" fill="white"/>
<path d="M417.507 472.231V530.169H400.001V522.278C398.227 524.839 395.804 526.916 392.733 528.508C389.73 530.031 386.386 530.792 382.7 530.792C378.332 530.792 374.476 529.823 371.132 527.885C367.788 525.878 365.194 523.005 363.352 519.267C361.509 515.529 360.587 511.133 360.587 506.08V472.231H377.991V503.692C377.991 507.568 378.981 510.58 380.96 512.725C382.939 514.871 385.601 515.944 388.945 515.944C392.357 515.944 395.053 514.871 397.033 512.725C399.012 510.58 400.001 507.568 400.001 503.692V472.231H417.507Z" fill="white"/>
<path d="M447.588 481.887C449.635 478.703 452.194 476.211 455.266 474.412C458.337 472.543 461.749 471.608 465.503 471.608V490.402H460.691C456.323 490.402 453.048 491.371 450.864 493.309C448.68 495.178 447.588 498.501 447.588 503.277V530.169H430.082V472.231H447.588V481.887Z" fill="white"/>
<path d="M520.655 457.279V471.504H491.376V486.871H513.284V500.681H491.376V530.169H473.87V457.279H520.655Z" fill="white"/>
<path d="M538.66 466.209C535.589 466.209 533.064 465.309 531.085 463.509C529.174 461.64 528.218 459.356 528.218 456.656C528.218 453.887 529.174 451.603 531.085 449.803C533.064 447.934 535.589 447 538.66 447C541.663 447 544.12 447.934 546.031 449.803C548.01 451.603 549 453.887 549 456.656C549 459.356 548.01 461.64 546.031 463.509C544.12 465.309 541.663 466.209 538.66 466.209ZM547.362 472.231V530.169H529.856V472.231H547.362Z" fill="white"/>
</svg>
